<svg width="18" height="18" viewBox="0 0 18 18" fill="none" xmlns="http://www.w3.org/2000/svg">
<path d="M8.38349 3.32326L1.63349 13.0733C1.55563 13.1858 1.51004 13.3175 1.50165 13.454C1.49326 13.5906 1.5224 13.7269 1.58589 13.8481C1.64939 13.9693 1.74484 14.0708 1.8619 14.1416C1.97895 14.2125 2.11316 14.25 2.24999 14.25L15.75 14.25C15.8869 14.2501 16.0212 14.2127 16.1384 14.1419C16.2555 14.0711 16.3511 13.9696 16.4147 13.8484C16.4783 13.7272 16.5074 13.5908 16.4991 13.4542C16.4907 13.3176 16.4451 13.1858 16.3672 13.0733L9.61724 3.32326C9.54792 3.22393 9.45563 3.14281 9.34823 3.08679C9.24083 3.03078 9.1215 3.00153 9.00037 3.00153C8.87924 3.00153 8.7599 3.03078 8.6525 3.08679C8.5451 3.14281 8.45282 3.22393 8.38349 3.32326Z" fill="#22CC13"/>
</svg>
