<svg width="18" height="18" viewBox="0 0 18 18" fill="none" xmlns="http://www.w3.org/2000/svg">
<path d="M9.61651 14.6768L16.3665 4.9268C16.4444 4.81428 16.49 4.68261 16.4983 4.54604C16.5067 4.40946 16.4776 4.2732 16.4141 4.152C16.3506 4.0308 16.2552 3.92927 16.1381 3.85842C16.021 3.78757 15.8868 3.7501 15.75 3.75005L2.25001 3.75005C2.11312 3.74996 1.97881 3.78734 1.86165 3.85813C1.74448 3.92893 1.64893 4.03044 1.58534 4.15167C1.52175 4.27289 1.49255 4.40921 1.50091 4.54585C1.50927 4.68249 1.55487 4.81423 1.63276 4.9268L8.38276 14.6768C8.45208 14.7761 8.54437 14.8573 8.65177 14.9133C8.75917 14.9693 8.8785 14.9985 8.99963 14.9985C9.12076 14.9985 9.2401 14.9693 9.3475 14.9133C9.4549 14.8573 9.54718 14.7761 9.61651 14.6768Z" fill="#F45D48"/>
</svg>
