<svg width="91" height="66" viewBox="0 0 91 66" fill="none" xmlns="http://www.w3.org/2000/svg">
<path d="M42.8356 38.0725C43.6295 35.9154 44.3583 33.8398 44.4526 31.6215C44.5329 29.6427 43.7888 28.0247 42.1478 26.9109C41.2438 26.2946 40.2823 25.7366 39.2715 25.3296C34.5618 23.3814 29.5852 22.6056 24.5413 22.1934C22.6745 22.0469 20.8082 21.9777 18.9417 21.8698C18.6286 21.8447 18.3194 21.8081 17.9482 21.7641C19.2976 17.6291 20.6205 13.5754 21.9509 9.49843C24.4243 9.04608 26.908 8.99548 29.381 9.09563C36.6492 9.38547 43.6358 10.9714 50.3858 13.6369C53.3445 14.808 56.1277 16.3203 58.5973 18.36C63.0086 22.0102 64.8577 26.7391 64.4102 32.4023C64.1553 35.5064 63.3279 38.4751 62.2838 41.3989C62.2497 41.5034 62.1421 41.5968 62.0426 41.7443C61.2688 41.556 60.4796 41.3756 59.7096 41.1757C57.9646 40.7348 56.1867 40.5916 54.3832 40.6842C51.2436 40.8549 49.0683 42.6383 48.2491 45.6997C47.5771 48.1922 47.7203 50.7065 48.2844 53.1911C49.0785 56.6248 50.5046 59.8148 52.2428 62.8754C52.7427 63.7454 53.4599 64.1465 54.5948 64.0156C54.5593 64.5181 54.616 64.935 54.4985 65.2951C53.3616 68.8183 52.1899 72.3301 51.0298 75.8457C51.0184 75.8806 50.9722 75.9041 50.9492 75.9351C49.987 75.891 38.5491 72.2741 35.2998 70.9695C35.2482 69.5133 35.2039 67.9951 35.1513 66.3843C34.4615 66.6476 33.8989 66.8752 33.3323 67.0759C25.8234 69.6892 18.607 69.0436 11.9777 64.6696C6.01173 60.7435 3.59257 55.0446 4.75724 47.9318C5.15177 45.5416 5.91793 43.2726 7.14102 41.1784C9.66752 36.862 13.4759 34.2877 18.2662 33.0749C22.0461 32.1235 25.8443 32.2578 29.631 33.018C34.1024 33.9245 38.2506 35.6637 42.2353 37.8252C42.3633 37.9055 42.5297 37.947 42.8356 38.0725ZM39.5086 48.4252C37.8519 47.2805 34.0223 45.8251 31.6168 45.4C28.2135 44.8035 25.8467 46.2288 24.7624 49.5121C24.6487 49.8606 24.5349 50.209 24.4561 50.5689C23.9274 53.1338 25.0079 55.4142 27.4018 56.4654C30.4001 57.7908 33.4077 57.5128 36.4062 56.3964C36.8764 56.2157 37.079 55.8705 37.223 55.4292C37.6511 54.078 38.1024 52.7344 38.5459 51.3755C38.868 50.3882 39.194 49.3893 39.5086 48.4252Z" fill="#FFB81D"/>
<path d="M66.4355 62.1861C66.7328 65.2519 67.3465 68.254 68.6275 71.1011C69.0075 71.9448 69.2758 72.8549 69.5518 73.7418C69.6623 74.112 69.6842 74.5175 69.7411 74.9731C68.8604 74.9942 68.3551 74.4951 67.8579 74.0501C66.1992 72.5963 65.1214 70.7409 64.3477 68.7019C63.5307 66.5589 63.1845 64.3125 62.9384 62.0345C62.8974 61.6484 62.8331 61.2547 62.5522 60.816C62.4764 61.0483 62.3658 61.2693 62.3402 61.5051C62.1399 63.4575 62.2409 65.3926 62.6663 67.3179C62.8968 68.3441 63.108 69.3898 63.2845 70.4242C63.3644 70.8487 63.3363 71.2893 63.3747 71.8802C62.4576 71.6195 61.9866 71.0545 61.6583 70.4461C61.0446 69.2948 60.4039 68.1475 60.0369 66.9096C59.4764 65.0045 59.1318 63.0285 58.6986 61.0878C58.6033 60.6712 58.5042 60.2661 58.4088 59.8494C58.3162 59.8578 58.2235 59.8661 58.1309 59.8744C58.0802 60.4234 57.9601 60.9882 58.0138 61.5327C58.1431 63.0657 58.3227 64.6023 58.5177 66.1311C58.5988 66.7488 58.6913 67.3316 58.0996 67.8454C57.5154 67.7061 57.2267 67.2521 57.019 66.7859C56.5724 65.7919 56.118 64.7825 55.8024 63.7413C54.9072 60.8145 54.4518 57.7999 54.2126 54.7529C54.1832 54.3706 54.1113 54.0002 53.8928 53.6461C53.0089 56.8663 53.5812 60.0348 54.2665 63.3686C53.9029 63.3014 53.6133 63.3225 53.4348 63.2C53.2175 63.0391 53.0613 62.7697 52.9245 62.5194C51.2513 59.3387 49.9017 56.0322 49.2228 52.482C48.8872 50.7146 48.8296 48.9222 49.1005 47.147C49.3156 45.7006 49.8328 44.3914 50.9003 43.3646C51.818 42.4817 52.924 42.0458 54.1945 41.972C61.5162 41.5467 67.3918 45.2377 69.8395 51.7943C70.7038 54.107 71.2445 56.5454 71.7657 58.9646C72.7917 63.6563 73.698 68.3603 74.6584 73.0563C74.7219 73.3341 74.7855 73.6119 74.8104 73.8899C74.9252 74.9555 74.0984 75.5597 73.1104 75.083C72.6802 74.8655 72.2996 74.5357 71.9459 74.2018C70.2439 72.6053 69.1189 70.6188 68.4061 68.4327C67.8153 66.6205 67.3863 64.7455 66.892 62.9134C66.813 62.6434 66.7341 62.3735 66.6551 62.1035C66.5897 62.1464 66.5203 62.1623 66.4355 62.1861Z" fill="#FFB81D"/>
<path d="M52.6834 -13.721C57.8905 -11.919 62.6465 -9.36447 66.6189 -5.47201C67.9637 -4.1592 69.1355 -2.71005 70.0652 -1.07005C70.7488 0.142655 71.2552 1.42604 71.4454 2.81189C71.8145 5.61843 70.613 8.07952 68.1533 9.47453C66.4942 10.424 64.6732 10.8065 62.7887 10.9112C58.7803 11.1454 54.9275 10.3122 51.2369 8.86367C47.5115 7.40375 44.0077 5.54059 40.9011 2.97172C38.9479 1.35756 37.1983 -0.447225 35.8443 -2.5984C34.9898 -3.95683 34.355 -5.3978 34.1055 -6.99577C33.6312 -9.95233 35.0445 -12.5114 37.4853 -13.8483C39.237 -14.8061 41.1431 -15.1737 43.1089 -15.2519C46.3841 -15.3655 49.5671 -14.7637 52.6834 -13.721ZM53.629 5.9043C54.4767 6.18095 55.3171 6.51946 56.176 6.72263C58.2419 7.20402 60.3336 7.48819 62.452 7.09991C65.4695 6.55523 66.3964 4.65998 65.0042 1.95655C64.2613 0.531722 63.207 -0.647711 62.026 -1.71429C58.3042 -5.07516 53.9713 -7.31166 49.1728 -8.63338C47.3347 -9.14326 45.4434 -9.49054 43.5165 -9.37395C42.6361 -9.31425 41.7213 -9.18864 40.8964 -8.9052C39.0923 -8.2987 38.4516 -6.96551 39.0308 -5.15713C39.2435 -4.50939 39.5258 -3.83891 39.9309 -3.3083C40.7448 -2.25871 41.5936 -1.19774 42.5727 -0.299877C45.7703 2.62001 49.5069 4.63623 53.629 5.9043Z" fill="#FFB81D"/>
</svg>
